<?xml version="1.0" encoding="UTF-8" standalone="no"?>
<!DOCTYPE svg PUBLIC "-//W3C//DTD SVG 1.1//EN"
 "http://www.w3.org/Graphics/SVG/1.1/DTD/svg11.dtd">
<!-- Generated by graphviz version 2.40.1 (20161225.0304)
 -->
<!-- Title: models_diagram Pages: 1 -->
<svg width="919pt" height="302pt"
 viewBox="0.00 0.00 919.31 302.00" xmlns="http://www.w3.org/2000/svg" xmlns:xlink="http://www.w3.org/1999/xlink">
<g id="graph0" class="graph" transform="scale(1 1) rotate(0) translate(4 298)">
<title>models_diagram</title>
<polygon fill="transparent" stroke="transparent" points="-4,4 -4,-298 915.312,-298 915.312,4 -4,4"/>
<!-- _diagram_info -->
<g id="node1" class="node">
<title>_diagram_info</title>
<text text-anchor="start" x="8" y="-265.6" font-family="Times,serif" font-size="13.00" fill="#000000">Models diagram</text>
<text text-anchor="start" x="8" y="-252.6" font-family="Times,serif" font-size="13.00" fill="#000000">Date: Aug 31 2017 &#45; 13:07</text>
<text text-anchor="start" x="8" y="-239.6" font-family="Times,serif" font-size="13.00" fill="#000000">Migration version: 20170831140717</text>
<text text-anchor="start" x="8" y="-226.6" font-family="Times,serif" font-size="13.00" fill="#000000">Generated by RailRoady 1.5.3</text>
<text text-anchor="start" x="8" y="-213.6" font-family="Times,serif" font-size="13.00" fill="#000000">http://railroady.prestonlee.com</text>
</g>
<!-- ApplicationRecord -->
<g id="node2" class="node">
<title>ApplicationRecord</title>
<ellipse fill="none" stroke="#000000" cx="302.4497" cy="-243.5" rx="77.2916" ry="18"/>
<text text-anchor="middle" x="302.4497" y="-239.3" font-family="Times,serif" font-size="14.00" fill="#000000">ApplicationRecord</text>
</g>
<!-- Category -->
<g id="node3" class="node">
<title>Category</title>
<path fill="none" stroke="#000000" d="M409.5874,-200.5C409.5874,-200.5 633.312,-200.5 633.312,-200.5 639.312,-200.5 645.312,-206.5 645.312,-212.5 645.312,-212.5 645.312,-274.5 645.312,-274.5 645.312,-280.5 639.312,-286.5 633.312,-286.5 633.312,-286.5 409.5874,-286.5 409.5874,-286.5 403.5874,-286.5 397.5874,-280.5 397.5874,-274.5 397.5874,-274.5 397.5874,-212.5 397.5874,-212.5 397.5874,-206.5 403.5874,-200.5 409.5874,-200.5"/>
<text text-anchor="middle" x="521.4497" y="-271.3" font-family="Times,serif" font-size="14.00" fill="#000000">Category</text>
<polyline fill="none" stroke="#000000" points="397.5874,-264.5 645.312,-264.5 "/>
<text text-anchor="start" x="405.5874" y="-249.3" font-family="Times,serif" font-size="14.00" fill="#000000">id :integer</text>
<text text-anchor="start" x="405.5874" y="-235.3" font-family="Times,serif" font-size="14.00" fill="#000000">name :character varying</text>
<text text-anchor="start" x="405.5874" y="-221.3" font-family="Times,serif" font-size="14.00" fill="#000000">created_at :timestamp without time zone</text>
<text text-anchor="start" x="405.5874" y="-207.3" font-family="Times,serif" font-size="14.00" fill="#000000">updated_at :timestamp without time zone</text>
</g>
<!-- Item -->
<g id="node4" class="node">
<title>Item</title>
<path fill="none" stroke="#000000" d="M542.5874,-.5C542.5874,-.5 766.312,-.5 766.312,-.5 772.312,-.5 778.312,-6.5 778.312,-12.5 778.312,-12.5 778.312,-144.5 778.312,-144.5 778.312,-150.5 772.312,-156.5 766.312,-156.5 766.312,-156.5 542.5874,-156.5 542.5874,-156.5 536.5874,-156.5 530.5874,-150.5 530.5874,-144.5 530.5874,-144.5 530.5874,-12.5 530.5874,-12.5 530.5874,-6.5 536.5874,-.5 542.5874,-.5"/>
<text text-anchor="middle" x="654.4497" y="-141.3" font-family="Times,serif" font-size="14.00" fill="#000000">Item</text>
<polyline fill="none" stroke="#000000" points="530.5874,-134.5 778.312,-134.5 "/>
<text text-anchor="start" x="538.5874" y="-119.3" font-family="Times,serif" font-size="14.00" fill="#000000">user_id :integer</text>
<text text-anchor="start" x="538.5874" y="-105.3" font-family="Times,serif" font-size="14.00" fill="#000000">serie :integer</text>
<text text-anchor="start" x="538.5874" y="-91.3" font-family="Times,serif" font-size="14.00" fill="#000000">name :character varying</text>
<text text-anchor="start" x="538.5874" y="-77.3" font-family="Times,serif" font-size="14.00" fill="#000000">size :integer</text>
<text text-anchor="start" x="538.5874" y="-63.3" font-family="Times,serif" font-size="14.00" fill="#000000">description :text</text>
<text text-anchor="start" x="538.5874" y="-49.3" font-family="Times,serif" font-size="14.00" fill="#000000">category_id :integer</text>
<text text-anchor="start" x="538.5874" y="-35.3" font-family="Times,serif" font-size="14.00" fill="#000000">created_at :timestamp without time zone</text>
<text text-anchor="start" x="538.5874" y="-21.3" font-family="Times,serif" font-size="14.00" fill="#000000">updated_at :timestamp without time zone</text>
<text text-anchor="start" x="538.5874" y="-7.3" font-family="Times,serif" font-size="14.00" fill="#000000">id :integer</text>
</g>
<!-- Category&#45;&gt;Item -->
<g id="edge1" class="edge">
<title>Category&#45;&gt;Item</title>
<path fill="none" stroke="#772c70" d="M561.544,-193.759C568.9911,-184.5201 576.9658,-174.6267 584.9979,-164.662"/>
<ellipse fill="none" stroke="#772c70" cx="558.9042" cy="-197.0339" rx="4" ry="4"/>
<polygon fill="#772c70" stroke="#772c70" points="585.1672,-164.4519 594.9465,-159.4904 588.3051,-160.5591 591.4429,-156.6663 591.4429,-156.6663 591.4429,-156.6663 588.3051,-160.5591 587.9394,-153.8422 585.1672,-164.4519 585.1672,-164.4519"/>
</g>
<!-- User -->
<g id="node5" class="node">
<title>User</title>
<path fill="none" stroke="#000000" d="M675.5874,-193.5C675.5874,-193.5 899.312,-193.5 899.312,-193.5 905.312,-193.5 911.312,-199.5 911.312,-205.5 911.312,-205.5 911.312,-281.5 911.312,-281.5 911.312,-287.5 905.312,-293.5 899.312,-293.5 899.312,-293.5 675.5874,-293.5 675.5874,-293.5 669.5874,-293.5 663.5874,-287.5 663.5874,-281.5 663.5874,-281.5 663.5874,-205.5 663.5874,-205.5 663.5874,-199.5 669.5874,-193.5 675.5874,-193.5"/>
<text text-anchor="middle" x="787.4497" y="-278.3" font-family="Times,serif" font-size="14.00" fill="#000000">User</text>
<polyline fill="none" stroke="#000000" points="663.5874,-271.5 911.312,-271.5 "/>
<text text-anchor="start" x="671.5874" y="-256.3" font-family="Times,serif" font-size="14.00" fill="#000000">id :integer</text>
<text text-anchor="start" x="671.5874" y="-242.3" font-family="Times,serif" font-size="14.00" fill="#000000">name :character varying</text>
<text text-anchor="start" x="671.5874" y="-228.3" font-family="Times,serif" font-size="14.00" fill="#000000">email :character varying</text>
<text text-anchor="start" x="671.5874" y="-214.3" font-family="Times,serif" font-size="14.00" fill="#000000">created_at :timestamp without time zone</text>
<text text-anchor="start" x="671.5874" y="-200.3" font-family="Times,serif" font-size="14.00" fill="#000000">updated_at :timestamp without time zone</text>
</g>
<!-- User&#45;&gt;Item -->
<g id="edge2" class="edge">
<title>User&#45;&gt;Item</title>
<path fill="none" stroke="#b6a068" d="M741.7261,-186.7753C735.9555,-179.6163 729.9529,-172.1694 723.9176,-164.682"/>
<ellipse fill="none" stroke="#b6a068" cx="744.3124" cy="-189.9837" rx="4" ry="4"/>
<polygon fill="#b6a068" stroke="#b6a068" points="723.641,-164.3388 720.8688,-153.7291 720.5031,-160.446 717.3653,-156.5531 717.3653,-156.5531 717.3653,-156.5531 720.5031,-160.446 713.8617,-159.3772 723.641,-164.3388 723.641,-164.3388"/>
</g>
</g>
</svg>
