<?xml version="1.0" encoding="UTF-8" standalone="no"?>
<!DOCTYPE svg PUBLIC "-//W3C//DTD SVG 1.1//EN"
 "http://www.w3.org/Graphics/SVG/1.1/DTD/svg11.dtd">
<!-- Generated by graphviz version 2.40.1 (20161225.0304)
 -->
<!-- Title: models_diagram Pages: 1 -->
<svg width="653pt" height="288pt"
 viewBox="0.00 0.00 653.31 288.00" xmlns="http://www.w3.org/2000/svg" xmlns:xlink="http://www.w3.org/1999/xlink">
<g id="graph0" class="graph" transform="scale(1 1) rotate(0) translate(4 284)">
<title>models_diagram</title>
<polygon fill="transparent" stroke="transparent" points="-4,4 -4,-284 649.312,-284 649.312,4 -4,4"/>
<!-- _diagram_info -->
<g id="node1" class="node">
<title>_diagram_info</title>
<text text-anchor="start" x="8" y="-258.6" font-family="Times,serif" font-size="13.00" fill="#000000">Models diagram</text>
<text text-anchor="start" x="8" y="-245.6" font-family="Times,serif" font-size="13.00" fill="#000000">Date: Aug 31 2017 &#45; 11:28</text>
<text text-anchor="start" x="8" y="-232.6" font-family="Times,serif" font-size="13.00" fill="#000000">Migration version: 20170831140717</text>
<text text-anchor="start" x="8" y="-219.6" font-family="Times,serif" font-size="13.00" fill="#000000">Generated by RailRoady 1.5.3</text>
<text text-anchor="start" x="8" y="-206.6" font-family="Times,serif" font-size="13.00" fill="#000000">http://railroady.prestonlee.com</text>
</g>
<!-- ApplicationRecord -->
<g id="node2" class="node">
<title>ApplicationRecord</title>
<ellipse fill="none" stroke="#000000" cx="302.4497" cy="-236.5" rx="77.2916" ry="18"/>
<text text-anchor="middle" x="302.4497" y="-232.3" font-family="Times,serif" font-size="14.00" fill="#000000">ApplicationRecord</text>
</g>
<!-- Category -->
<g id="node3" class="node">
<title>Category</title>
<path fill="none" stroke="#000000" d="M409.5874,-193.5C409.5874,-193.5 633.312,-193.5 633.312,-193.5 639.312,-193.5 645.312,-199.5 645.312,-205.5 645.312,-205.5 645.312,-267.5 645.312,-267.5 645.312,-273.5 639.312,-279.5 633.312,-279.5 633.312,-279.5 409.5874,-279.5 409.5874,-279.5 403.5874,-279.5 397.5874,-273.5 397.5874,-267.5 397.5874,-267.5 397.5874,-205.5 397.5874,-205.5 397.5874,-199.5 403.5874,-193.5 409.5874,-193.5"/>
<text text-anchor="middle" x="521.4497" y="-264.3" font-family="Times,serif" font-size="14.00" fill="#000000">Category</text>
<polyline fill="none" stroke="#000000" points="397.5874,-257.5 645.312,-257.5 "/>
<text text-anchor="start" x="405.5874" y="-242.3" font-family="Times,serif" font-size="14.00" fill="#000000">id :integer</text>
<text text-anchor="start" x="405.5874" y="-228.3" font-family="Times,serif" font-size="14.00" fill="#000000">name :character varying</text>
<text text-anchor="start" x="405.5874" y="-214.3" font-family="Times,serif" font-size="14.00" fill="#000000">created_at :timestamp without time zone</text>
<text text-anchor="start" x="405.5874" y="-200.3" font-family="Times,serif" font-size="14.00" fill="#000000">updated_at :timestamp without time zone</text>
</g>
<!-- Item -->
<g id="node4" class="node">
<title>Item</title>
<path fill="none" stroke="#000000" d="M409.5874,-.5C409.5874,-.5 633.312,-.5 633.312,-.5 639.312,-.5 645.312,-6.5 645.312,-12.5 645.312,-12.5 645.312,-144.5 645.312,-144.5 645.312,-150.5 639.312,-156.5 633.312,-156.5 633.312,-156.5 409.5874,-156.5 409.5874,-156.5 403.5874,-156.5 397.5874,-150.5 397.5874,-144.5 397.5874,-144.5 397.5874,-12.5 397.5874,-12.5 397.5874,-6.5 403.5874,-.5 409.5874,-.5"/>
<text text-anchor="middle" x="521.4497" y="-141.3" font-family="Times,serif" font-size="14.00" fill="#000000">Item</text>
<polyline fill="none" stroke="#000000" points="397.5874,-134.5 645.312,-134.5 "/>
<text text-anchor="start" x="405.5874" y="-119.3" font-family="Times,serif" font-size="14.00" fill="#000000">user_id :integer</text>
<text text-anchor="start" x="405.5874" y="-105.3" font-family="Times,serif" font-size="14.00" fill="#000000">serie :integer</text>
<text text-anchor="start" x="405.5874" y="-91.3" font-family="Times,serif" font-size="14.00" fill="#000000">name :character varying</text>
<text text-anchor="start" x="405.5874" y="-77.3" font-family="Times,serif" font-size="14.00" fill="#000000">size :integer</text>
<text text-anchor="start" x="405.5874" y="-63.3" font-family="Times,serif" font-size="14.00" fill="#000000">description :text</text>
<text text-anchor="start" x="405.5874" y="-49.3" font-family="Times,serif" font-size="14.00" fill="#000000">category_id :integer</text>
<text text-anchor="start" x="405.5874" y="-35.3" font-family="Times,serif" font-size="14.00" fill="#000000">created_at :timestamp without time zone</text>
<text text-anchor="start" x="405.5874" y="-21.3" font-family="Times,serif" font-size="14.00" fill="#000000">updated_at :timestamp without time zone</text>
<text text-anchor="start" x="405.5874" y="-7.3" font-family="Times,serif" font-size="14.00" fill="#000000">id :integer</text>
</g>
<!-- Category&#45;&gt;Item -->
<g id="edge1" class="edge">
<title>Category&#45;&gt;Item</title>
<path fill="none" stroke="#eb5286" d="M521.4497,-185.1032C521.4497,-179.245 521.4497,-173.1552 521.4497,-166.9871"/>
<ellipse fill="none" stroke="#eb5286" cx="521.4498" cy="-189.3258" rx="4" ry="4"/>
<polygon fill="#eb5286" stroke="#eb5286" points="521.4498,-166.5598 525.9497,-156.5597 521.4498,-161.5598 521.4497,-156.5598 521.4497,-156.5598 521.4497,-156.5598 521.4498,-161.5598 516.9497,-156.5598 521.4498,-166.5598 521.4498,-166.5598"/>
</g>
</g>
</svg>
